PathFileType  4	(X/Y/Z) C:\Users\antoi\Documents\MyRepositories\mobilecap\ResultsAnalysis
DataRate	CameraRate	NumFrames	NumMarkers	Units	OrigDataRate	OrigDataStartFrame	OrigNumFrames
100.0	100.0	5	51	mm	100.0	67	133
Frame#	Time	r_knee			r_shank_antsup			r_ankle			r_calc			r_5meta			r_toe			L_knee			L_shank_antsup			L_ankle			L_calc			L_5meta			L_toe			r_sh2			r_sh3			r_sh4			L_sh2			L_sh3			r_thigh1			r_thigh2			r_thigh3			r_thigh4			r_thigh5			L_thigh1			L_thigh2			L_thigh3			L_thigh4			r.ASIS			r.PSIS			L.ASIS			L.PSIS			C7			R_Shoulder			L_Shoulder			R_Sternum			L_Sternum			R_humerus			R_elbow_med			R_elbow_lat			R_forearm			R_wrist_radius			R_wrist_ulna			L_humerus			L_elbow_med			L_elbow_lat			L_forearm			L_wrist_radius			L_wrist_ulna			R_HJC			L_HJC			R_HJC_reg			L_HJC_reg			
		X1	Y1	Z1	X2	Y2	Z2	X3	Y3	Z3	X4	Y4	Z4	X5	Y5	Z5	X6	Y6	Z6	X7	Y7	Z7	X8	Y8	Z8	X9	Y9	Z9	X10	Y10	Z10	X11	Y11	Z11	X12	Y12	Z12	X13	Y13	Z13	X14	Y14	Z14	X15	Y15	Z15	X16	Y16	Z16	X17	Y17	Z17	X18	Y18	Z18	X19	Y19	Z19	X20	Y20	Z20	X21	Y21	Z21	X22	Y22	Z22	X23	Y23	Z23	X24	Y24	Z24	X25	Y25	Z25	X26	Y26	Z26	X27	Y27	Z27	X28	Y28	Z28	X29	Y29	Z29	X30	Y30	Z30	X31	Y31	Z31	X32	Y32	Z32	X33	Y33	Z33	X34	Y34	Z34	X35	Y35	Z35	X36	Y36	Z36	X37	Y37	Z37	X38	Y38	Z38	X39	Y39	Z39	X40	Y40	Z40	X41	Y41	Z41	X42	Y42	Z42	X43	Y43	Z43	X44	Y44	Z44	X45	Y45	Z45	X46	Y46	Z46	X47	Y47	Z47	X48	Y48	Z48	X49	Y49	Z49	X50	Y50	Z50	X51	Y51	Z51	

67	0.66000000	688.03154	464.57592	-17.35292	676.63079	381.53833	-33.29846	396.17203	181.74124	-37.11889	325.88123	213.12878	-60.83096	421.86616	58.02898	-40.68073	470.23155	56.74785	-101.95774	902.53530	497.96131	-292.82679	948.15824	408.35782	-289.32225	907.97186	96.04035	-277.61544	833.58175	63.79598	-245.67360	1020.01761	41.86896	-291.25611	1048.68768	67.00397	-228.77859	582.59819	315.61389	-8.16149	630.27227	442.22000	-2.06234	539.43645	375.63305	-0.38131	859.84839	410.52885	-311.12466	869.52523	288.47550	-316.37553	797.87646	768.15082	4.63793	777.81809	659.36397	0.91178	719.86049	643.25966	21.86822	685.04594	783.02403	20.33036	669.47860	668.51278	6.65357	853.63859	759.36848	-348.87190	900.59843	633.28777	-317.36614	745.54363	721.15819	-328.06858	800.79185	592.05078	-308.14037	828.54267	946.51906	-27.97446	643.51739	984.40415	-123.22726	850.88181	945.61550	-279.03646	642.35497	992.04193	-223.78629	643.32150	1402.89567	-174.40854	760.88080	1369.11099	-7.24474	702.39259	1363.71806	-357.25596	783.81952	1366.76330	-165.41443	784.95940	1367.12374	-209.96223	799.75917	1241.38083	52.94776	765.81337	1020.04206	39.09574	803.16366	1045.16653	96.58580	912.43426	956.84171	63.47399	989.51377	850.55989	36.76696	982.50840	836.64554	68.80058	699.28271	1252.29454	-421.96473	582.61473	1044.68648	-388.78659	622.84909	1056.82941	-455.51134	658.70954	944.75145	-441.12993	643.87583	785.91009	-446.39733	637.92008	791.25028	-480.65663	753.11346	866.67771	-61.46129	770.21848	871.30327	-267.16987	768.93023	863.60151	-68.21215	767.01374	876.20407	-234.08026	
68	0.67000000	712.14511	462.08015	-15.50541	699.26641	379.65878	-31.28345	412.09724	189.90435	-35.92599	345.51007	227.13265	-60.30288	427.39320	63.49579	-40.70655	477.55702	59.33872	-100.06284	913.34804	498.18137	-293.96813	956.74863	407.09927	-290.52108	908.74221	96.16719	-277.57437	833.78891	63.99499	-245.58636	1020.17779	41.64494	-291.72732	1048.82638	66.02804	-228.88131	603.07203	317.12108	-6.45292	655.11723	441.84844	-0.43167	561.77000	378.57575	0.46254	868.49996	411.18434	-312.54567	875.40713	288.92416	-317.19670	812.86671	768.42453	4.19335	795.99301	659.26704	2.26552	738.12294	641.24747	22.31597	699.59428	780.31002	18.20950	687.44841	665.30122	6.42590	866.61499	760.31608	-350.38526	912.72377	633.90373	-318.66879	758.43453	722.35483	-331.43633	812.48668	593.10824	-310.49559	840.24853	946.38438	-29.44735	655.56937	984.01428	-124.37940	863.25400	946.61364	-280.56214	654.54191	992.41551	-224.91055	655.85555	1403.36428	-176.60030	772.81602	1369.93429	-9.05964	715.80677	1363.87680	-359.16334	796.20948	1367.28127	-167.13570	797.56548	1367.54333	-211.69163	811.21962	1242.14261	51.35826	776.21902	1020.98525	37.57255	813.54772	1045.99968	95.23061	922.26951	956.76764	62.58578	998.86591	849.91180	36.52882	991.51951	836.13031	68.60649	713.31621	1252.36998	-423.75521	596.92262	1044.52301	-391.03021	637.45194	1056.68684	-457.55168	673.71548	944.77493	-442.75716	659.52864	785.87024	-447.61869	653.82066	791.09741	-481.89606	765.35883	866.40479	-63.28281	782.62183	872.11637	-268.94626	781.26258	863.00754	-70.43033	779.56801	876.86861	-236.27412	
69	0.68000000	736.74489	459.97978	-13.78542	722.57777	378.24149	-29.58817	429.19877	198.27294	-34.87643	366.30405	240.57398	-60.21236	434.87952	70.00552	-40.60615	486.83061	63.03676	-97.86435	923.21181	498.11637	-295.18825	964.79061	405.75229	-291.68249	909.41874	96.30101	-277.55881	833.93783	64.16864	-245.53207	1020.30701	41.48858	-292.09785	1048.94615	65.30837	-228.96506	624.53322	318.96405	-5.05208	680.56800	441.80610	1.09812	584.98170	381.68666	1.21388	876.65766	411.67394	-314.02012	880.94318	289.25311	-318.03440	827.72632	768.88215	3.87791	814.35712	659.19041	3.30176	756.41834	639.36571	22.74264	714.11041	777.60146	16.26147	705.49259	662.13868	6.16046	878.86808	760.95683	-351.97377	924.01405	634.13648	-320.12459	770.60276	723.43918	-334.60011	823.22636	594.01278	-312.60153	851.64645	946.04392	-30.90131	667.31040	983.52336	-125.38664	875.39209	947.60429	-282.00485	666.48876	992.72732	-225.90709	668.24885	1403.84486	-178.69190	784.57871	1370.76092	-10.76153	729.22230	1364.02566	-360.95732	808.46147	1367.72921	-168.68305	810.09800	1367.90211	-213.25314	822.47950	1242.91775	49.90019	786.35166	1021.98201	36.21536	823.70105	1046.85712	94.03069	931.83316	956.66814	61.89440	1007.94094	849.23881	36.54609	1000.21699	835.58196	68.66074	727.41193	1252.45648	-425.44578	611.35556	1044.28928	-393.33975	652.24807	1056.50769	-459.61731	689.04388	944.80847	-444.34962	675.68291	785.83537	-448.78787	670.24539	790.92438	-483.09028	777.32278	865.95839	-65.09389	794.74993	872.92030	-270.70072	793.23728	862.33157	-72.69923	791.88152	877.50830	-238.47077	
70	0.69000000	761.62929	458.50103	-12.23451	746.39388	377.41778	-28.20249	447.43732	206.77543	-34.08414	387.84546	253.03468	-60.63920	445.04124	77.41721	-40.20658	498.52074	67.79758	-95.46433	932.09024	497.78642	-296.39143	972.24654	404.35643	-292.69128	910.03615	96.42456	-277.51095	834.03639	64.32357	-245.51859	1020.42182	41.35002	-292.36235	1049.10017	64.75598	-229.00968	646.74274	321.20682	-3.94307	706.35289	442.23190	2.42974	608.83276	385.04165	1.83828	884.28626	412.00083	-315.44096	886.13584	289.47007	-318.82031	842.39392	769.62576	3.64573	832.80251	659.27862	3.99868	774.69721	637.78222	23.06751	728.53126	775.06036	14.48868	723.54802	659.23241	5.75719	890.34491	761.28901	-353.54933	934.42244	634.00636	-321.62335	781.94695	724.44788	-337.28328	832.96604	594.77616	-314.33970	862.78141	945.53348	-32.30122	678.76253	982.99044	-126.31131	887.33815	948.53587	-283.33662	678.22536	993.02100	-226.84651	680.47929	1404.32750	-180.69554	796.11643	1371.57428	-12.32147	742.60719	1364.15800	-362.64155	820.55656	1368.12205	-170.05351	822.52910	1368.20734	-214.63379	833.49002	1243.67606	48.59172	796.20511	1022.99100	35.04329	833.59652	1047.70306	92.99567	941.12569	956.53741	61.41346	1016.67066	848.51370	36.80569	1008.60224	834.99854	68.96152	741.56117	1252.53510	-427.02365	625.90418	1043.97225	-395.69483	667.21695	1056.28747	-461.68250	704.67594	944.84511	-445.89960	692.31976	785.79812	-449.90463	687.14930	790.73225	-484.24405	788.98890	865.39176	-66.87518	806.63175	873.69227	-272.41184	804.86992	861.58864	-74.97473	803.98250	878.11156	-240.63333	
71	0.70000000	786.59526	457.81698	-10.89263	770.56079	377.28214	-27.11660	466.81194	215.26245	-33.64293	409.78714	264.17160	-61.58208	458.45791	85.44237	-39.35318	513.02228	73.44784	-92.97334	940.04510	497.26167	-297.48316	979.08896	402.96912	-293.48645	910.60899	96.53714	-277.39317	834.08863	64.46137	-245.54651	1020.52832	41.21393	-292.53414	1049.31297	64.31978	-229.01467	669.51071	323.85197	-3.12054	732.23316	443.21413	3.49042	633.11720	388.65301	2.31979	891.34802	412.19720	-316.70745	890.95867	289.60977	-319.49510	856.83336	770.75257	3.44815	851.22035	659.70511	4.39874	792.94799	636.62666	23.21502	742.81919	772.83341	12.86917	741.57522	656.75910	5.14802	901.06186	761.36974	-355.02257	943.97632	633.59288	-323.05099	792.46814	725.43292	-339.30984	841.75997	595.44630	-315.65766	873.70959	944.93506	-33.60497	689.96378	982.51515	-127.21548	899.11792	949.36700	-284.54246	689.77305	993.36171	-227.79470	692.53563	1404.83316	-182.61971	807.39333	1372.36973	-13.70891	755.92627	1364.27843	-364.22427	832.49032	1368.50105	-171.25641	834.82796	1368.48634	-215.83527	844.20343	1244.39824	47.45473	805.79242	1023.97190	34.06238	843.20905	1048.51376	92.12838	950.14979	956.38142	61.15424	1025.03431	847.73431	37.30463	1016.67543	834.38507	69.50568	755.75910	1252.59086	-428.47444	640.56023	1043.55947	-398.07473	682.34581	1056.02654	-463.71651	720.57844	944.87645	-447.39578	709.40731	785.75439	-450.96815	704.48194	790.52567	-485.35886	800.34748	864.80228	-68.59238	818.28433	874.42135	-274.04745	816.19028	860.83485	-77.17682	815.87294	878.67858	-242.70323	
